HIERARCHY
ROOT root
{
	OFFSET 0.000000 0.000000 0.000000
	CHANNELS 6 Xposition Yposition Zposition Zrotation Yrotation Xrotation
	JOINT lhip
	{
		OFFSET 0.058581 -0.082280 -0.017664
		CHANNELS 3 Zrotation Yrotation Xrotation
		JOINT lknee
		{
			OFFSET 0.043451 -0.386469 0.008037
			CHANNELS 3 Zrotation Yrotation Xrotation
			JOINT lankle
			{
				OFFSET -0.014790 -0.426874 -0.037428
				CHANNELS 3 Zrotation Yrotation Xrotation
				JOINT ltoe
				{
					OFFSET 0.041054 -0.060286 0.122042
					CHANNELS 3 Zrotation Yrotation Xrotation
					End Site
					{
						OFFSET 0.000000 0.000000 0.000000
					}
				}
			}
		}
	}
	JOINT rhip
	{
		OFFSET -0.060310 -0.090513 -0.013543
		CHANNELS 3 Zrotation Yrotation Xrotation
		JOINT rknee
		{
			OFFSET -0.043257 -0.383688 -0.004843
			CHANNELS 3 Zrotation Yrotation Xrotation
			JOINT rankle
			{
				OFFSET 0.019056 -0.420046 -0.034562
				CHANNELS 3 Zrotation Yrotation Xrotation
				JOINT rtoe
				{
					OFFSET -0.034840 -0.062106 0.130323
					CHANNELS 3 Zrotation Yrotation Xrotation
					End Site
					{
						OFFSET 0.000000 0.000000 0.000000
					}
				}
			}
		}
	}
	JOINT lowerback
	{
		OFFSET 0.004439 0.124404 -0.038385
		CHANNELS 3 Zrotation Yrotation Xrotation
		JOINT upperback
		{
			OFFSET 0.004488 0.137956 0.026820
			CHANNELS 3 Zrotation Yrotation Xrotation
			JOINT chest
			{
				OFFSET -0.002265 0.056032 0.002855
				CHANNELS 3 Zrotation Yrotation Xrotation
				JOINT lowerneck
				{
					OFFSET -0.013390 0.211636 -0.033468
					CHANNELS 3 Zrotation Yrotation Xrotation
					JOINT upperneck
					{
						OFFSET 0.010113 0.088937 0.050410
						CHANNELS 3 Zrotation Yrotation Xrotation
						End Site
						{
							OFFSET 0.000000 0.000000 0.000000
						}
					}
				}
				JOINT lclavicle
				{
					OFFSET 0.071702 0.114000 -0.018898
					CHANNELS 3 Zrotation Yrotation Xrotation
					JOINT lshoulder
					{
						OFFSET 0.122921 0.045205 -0.019046
						CHANNELS 3 Zrotation Yrotation Xrotation
						JOINT lelbow
						{
							OFFSET 0.255332 -0.015649 -0.022946
							CHANNELS 3 Zrotation Yrotation Xrotation
							JOINT lwrist
							{
								OFFSET 0.265709 0.012698 -0.007375
								CHANNELS 3 Zrotation Yrotation Xrotation
								End Site
								{
									OFFSET 0.000000 0.000000 0.000000
								}
							}
						}
					}
				}
				JOINT rclavicle
				{
					OFFSET -0.082954 0.112472 -0.023707
					CHANNELS 3 Zrotation Yrotation Xrotation
					JOINT rshoulder
					{
						OFFSET -0.113228 0.046853 -0.008472
						CHANNELS 3 Zrotation Yrotation Xrotation
						JOINT relbow
						{
							OFFSET -0.260127 -0.014369 -0.031269
							CHANNELS 3 Zrotation Yrotation Xrotation
							JOINT rwrist
							{
								OFFSET -0.269108 0.006794 -0.006027
								CHANNELS 3 Zrotation Yrotation Xrotation
								End Site
								{
									OFFSET 0.000000 0.000000 0.000000
								}
							}
						}
					}
				}
			}
		}
	}
}
MOTION
Frames: 17
Frame Time: 0.033333
0.216393 0.337887 0.885948 -99.834685 -15.528307 90.374603 7.372762 1.338224 -28.239520 -3.456126 14.507893 51.510801 3.642635 11.496581 -23.878423 0.000000 -0.000000 0.000000 -2.527834 -6.729381 -15.210757 0.584660 -9.598191 58.978199 -5.969319 -1.938046 -37.535700 0.000000 -0.000000 0.000000 -2.817266 4.555728 31.434306 -3.552775 -1.616878 1.740815 -1.589593 1.146337 2.269334 3.222587 -5.857475 -10.350224 7.927981 -10.804567 3.961120 -33.286852 -15.641337 -1.894209 -45.907881 -18.626098 13.800579 72.077136 -72.006422 -46.394888 28.913942 -13.365289 2.812138 29.391828 22.583406 5.174439 47.696271 13.832867 7.857923 -15.444524 30.050249 0.054122 -17.865988 19.402911 15.133927 
0.148394 0.450520 0.891369 -109.222966 -17.363682 92.680257 7.445563 -0.816100 -39.998963 -6.950366 15.137809 49.504506 4.175306 9.509364 -19.099144 0.000000 -0.000000 0.000000 0.477250 -7.383159 -4.047274 2.607021 -4.181882 48.278989 -3.750641 0.959171 -29.712682 0.000000 -0.000000 0.000000 -6.998154 11.170461 28.512596 -3.458566 -3.147551 -0.020082 -2.001545 2.019007 2.690819 1.899505 -3.982805 -8.013982 10.137565 -15.401256 2.279785 -25.951804 -19.305044 -4.944152 -41.038129 -25.996975 10.774725 54.263382 -61.307141 -35.962239 29.219851 -8.533170 -4.568537 26.244823 20.472981 3.368069 50.200409 8.809385 9.105238 -18.784881 25.285546 -3.066535 -14.170383 12.163731 8.664509 
0.087582 0.546417 0.899475 -114.598680 -17.740610 93.902134 9.849861 -5.413237 -46.075026 -10.816844 10.310280 41.629415 0.400390 5.015449 -11.986861 0.000000 -0.000000 0.000000 2.280141 -7.008845 6.014668 3.778528 1.455274 38.054755 1.671387 4.231336 -13.622820 0.000000 -0.000000 0.000000 -9.677424 14.598409 26.456998 -3.320155 -4.997073 -0.730961 -1.507833 2.172592 1.465448 0.490150 -4.895217 -5.529173 14.238357 -16.756401 -0.472521 -22.829106 -19.923181 -5.107766 -34.055601 -26.949749 6.607845 49.867037 -53.572366 -37.588424 26.286207 -7.462545 -6.955043 23.898725 18.181187 3.493060 50.568219 3.357939 9.660962 -19.469163 27.371919 -3.567017 -15.398188 11.488264 4.044345 
0.022031 0.643618 0.903888 -118.164940 -17.826541 94.061156 11.189546 -10.733104 -48.694876 -12.526152 4.118689 35.778070 -5.260415 1.983812 -8.742442 0.000000 -0.000000 0.000000 4.456685 -5.986924 13.367327 2.177251 5.557720 30.502157 13.283481 8.644263 12.898251 0.000000 -0.000000 0.000000 -11.914768 16.514544 25.100058 -3.531604 -7.062921 -1.521927 0.089246 2.292392 -0.037227 -0.754251 -9.048051 -1.617821 19.844878 -17.346752 -4.300321 -22.623418 -17.927618 -4.689228 -28.274255 -25.445796 4.276769 51.534208 -49.961922 -50.709761 16.446642 -6.632745 -13.270951 21.946056 15.305270 4.306309 48.580750 -2.710845 10.834168 -16.329503 30.811053 -2.398575 -24.309733 12.594004 3.144727 
-0.041312 0.734765 0.898427 -120.793169 -17.908388 94.824504 9.738737 -14.604576 -50.797064 -13.429104 1.265294 37.503398 -7.755063 -0.435326 -7.353677 0.000000 -0.000000 0.000000 6.481193 -4.794354 11.851460 0.902118 2.297023 37.201503 12.810409 6.741383 8.707484 0.000000 -0.000000 0.000000 -12.865237 16.827729 23.542332 -2.837612 -7.301895 -2.791993 -0.218444 1.854764 0.053757 1.285288 -12.085868 -1.123887 22.744424 -22.553248 -8.007703 -21.329485 -15.400240 -3.964115 -25.790533 -25.103266 2.309114 56.777301 -47.273646 -59.431089 12.230981 -8.435380 -19.941010 20.177343 10.529228 3.400532 48.288773 -8.591556 9.700935 -17.846266 32.821171 -2.652829 -25.379326 13.584225 1.554653 
-0.101487 0.825723 0.888661 -123.792002 -18.074272 93.063407 6.154617 -17.408190 -45.816612 -16.514577 0.103363 39.975934 -6.993267 0.056985 -6.873481 0.000000 -0.000000 0.000000 5.803812 -5.010221 7.771569 -1.353072 -3.997956 50.822474 8.087775 -1.134361 4.480936 0.000000 -0.000000 0.000000 -12.674157 16.549387 25.699368 -2.648035 -6.398280 -2.959196 -0.293112 1.682120 0.173540 3.060577 -15.799430 -2.876297 25.990802 -26.096374 -11.676113 -20.597530 -13.693090 -4.538949 -21.877195 -25.370820 0.175496 58.259221 -46.642512 -66.179147 10.511286 -7.804658 -27.148711 19.765546 7.649286 2.697624 47.809662 -14.002674 8.049794 -21.399744 31.358686 -10.972435 -26.619062 11.139247 -1.762866 
-0.159669 0.914309 0.870127 -129.125678 -16.443742 91.878458 2.135811 -14.503444 -36.248243 -12.898236 -0.674746 44.646820 4.534773 12.489440 -23.203101 0.000000 -0.000000 0.000000 4.525552 -5.092135 -0.912219 -1.754357 -7.020713 68.943769 4.117367 -7.855727 -1.303026 0.000000 -0.000000 0.000000 -11.592526 13.937422 27.208052 -2.606741 -3.800783 -4.113779 -0.111958 1.964564 1.683354 4.740807 -17.222184 -5.417287 26.054156 -25.827709 -13.842747 -19.305115 -11.144658 -4.896038 -19.353643 -23.702041 -2.300487 60.599394 -49.102943 -68.199534 8.615645 -7.415083 -31.971698 18.475630 6.253555 2.635284 47.706546 -17.243306 6.091316 -23.882907 27.628621 -17.392588 -24.026336 8.080320 -3.914598 
-0.211885 1.002399 0.854012 -133.713022 -15.540277 91.978685 3.777384 -11.498715 -29.226145 -14.589689 -1.573766 49.299652 3.505415 14.269117 -31.429390 0.000000 -0.000000 0.000000 1.913849 -4.062085 -13.664162 -1.092857 -10.918753 84.275764 2.325634 -8.854401 -7.637112 0.000000 -0.000000 0.000000 -11.667608 10.802682 28.047221 -1.732570 -2.319927 -4.358329 -0.005308 1.353884 1.891566 6.595557 -14.822023 -7.203914 24.971353 -25.346931 -14.369471 -18.559725 -8.518350 -5.508757 -17.781928 -21.573992 -3.368284 64.448627 -51.727555 -73.042411 6.432429 -8.075804 -37.249578 18.739721 3.400896 1.725163 45.721255 -17.225566 3.598607 -25.479934 25.336705 -22.059865 -23.166796 6.078971 -5.199411 
-0.261152 1.094688 0.848856 -137.887479 -14.181870 93.044965 5.732062 -4.070631 -18.287384 -16.115059 -5.267201 45.743726 2.825057 13.143604 -36.285627 0.000000 -0.000000 0.000000 -0.083460 -5.517971 -27.948989 -0.362947 -13.228049 93.000065 1.611853 -6.645647 -13.415864 0.000000 -0.000000 0.000000 -11.061276 6.212270 27.646482 -1.193819 -1.000654 -4.463862 -0.164728 0.074884 1.918795 7.250266 -10.604936 -8.534439 21.851460 -24.186754 -12.083432 -18.357113 -4.919772 -4.693730 -19.063220 -18.771860 -4.322662 79.557718 -55.469953 -82.445043 5.430797 -8.531402 -39.343786 19.409755 0.500455 1.553332 45.559847 -14.654181 -0.160621 -27.717960 26.491641 -26.895718 -22.483457 4.447293 -7.610510 
-0.310269 1.191566 0.854586 -141.255647 -12.402897 95.962762 8.811275 0.232094 -8.354839 -16.158780 -9.664456 39.360309 -0.754828 10.601399 -34.024935 0.000000 -0.000000 0.000000 -2.374755 -6.087816 -42.247579 -1.218665 -16.418090 93.623914 0.413102 -6.337728 -16.573610 0.000000 -0.000000 0.000000 -9.439302 0.152848 24.931444 -0.919305 0.813044 -5.720096 -0.659722 -1.091947 3.064650 7.605868 -7.712385 -9.156979 17.307601 -21.660861 -7.217296 -19.591254 -0.068856 -5.894418 -24.948990 -20.537477 -3.187349 103.610678 -56.181512 -96.429266 5.116811 -9.132229 -33.456230 19.547121 -3.372417 1.180396 47.534815 -11.543495 -2.398512 -29.788453 30.026738 -29.406817 -18.849717 3.171195 -11.945403 
-0.357422 1.296032 0.869628 -144.427498 -10.902950 98.221907 11.580593 1.836799 2.661348 -14.174577 -12.708557 30.271335 -6.436902 7.323221 -23.052114 0.000000 -0.000000 0.000000 -4.549936 -5.555931 -52.210520 -1.637549 -18.652302 85.295378 -1.602019 -5.558685 -18.349014 0.000000 -0.000000 0.000000 -6.972450 -5.109374 22.473413 -1.388031 2.409560 -5.385465 -1.706703 -2.074066 3.079981 7.375622 -5.006950 -9.368255 14.178133 -19.735535 -3.018086 -21.742926 2.976269 -7.980372 -29.537283 -23.842375 0.022465 130.098034 -55.475351 -110.431701 5.824172 -10.153916 -24.075206 21.208004 -5.493597 1.278411 49.602254 -8.449406 -2.944441 -29.408593 31.311038 -27.071551 -19.435418 3.122060 -13.304159 
-0.403501 1.403146 0.883359 -148.553709 -9.120547 100.427029 12.190113 2.251208 12.261399 -9.158591 -13.294450 21.950257 -7.025723 10.803211 -11.349641 0.000000 -0.000000 0.000000 -6.429049 -2.883499 -58.496030 0.610141 -20.157411 69.228229 -1.579467 -4.863378 -17.838310 0.000000 -0.000000 0.000000 -3.967719 -9.933966 19.881318 -1.803309 3.677170 -4.107447 -2.587938 -2.973710 3.025778 6.351699 -2.902751 -9.946662 10.249145 -15.428664 -0.115034 -23.960821 3.631038 -7.524827 -28.622209 -24.044817 5.044803 154.557450 -53.388846 -131.983041 9.171245 -13.080750 -7.275105 23.021052 -4.146987 1.600184 49.555341 -3.965277 -1.510683 -27.421826 31.048075 -31.050428 -21.727655 4.984900 -10.032081 
-0.451410 1.508136 0.886274 -151.737064 -6.630947 101.653612 12.181070 2.720242 17.917597 -4.630142 -10.150466 24.128604 -2.794261 17.611159 -10.432173 0.000000 -0.000000 0.000000 -7.436874 -0.493437 -60.470631 5.396223 -19.384124 49.199182 -1.474722 -6.622861 -14.699019 0.000000 -0.000000 0.000000 0.483524 -14.041765 18.993098 -1.078878 3.130578 -2.953843 -2.904215 -4.158241 2.833733 3.429538 -2.321208 -10.375626 6.871565 -7.168493 -0.628650 -24.174943 0.395882 -5.173327 -26.237414 -21.182470 10.247490 171.966727 -56.140518 -145.986744 22.874070 -13.939431 -3.926386 23.607005 0.321996 2.226087 47.188088 0.728909 1.738362 -26.899690 32.554843 -34.289246 -25.231795 6.115634 -9.534111 
-0.496513 1.614750 0.877596 -155.962497 -5.964464 100.999681 9.220250 2.286916 22.159402 -7.373969 -10.842458 34.320831 -4.592705 14.271207 -11.932591 0.000000 -0.000000 0.000000 -8.221293 1.544680 -59.438724 7.097322 -17.302565 35.820390 0.613205 -6.511334 -7.315394 0.000000 -0.000000 0.000000 1.501824 -15.480397 21.084234 0.300999 0.958834 -0.729553 -2.383094 -5.487853 1.781901 1.560699 1.079857 -12.770693 3.358448 -1.836558 -2.702188 -25.507115 -3.936052 -1.728889 -25.213839 -16.782250 13.479622 174.094700 -67.830719 -147.638003 22.439074 -17.066245 1.991184 25.474914 6.219728 1.888000 43.432352 6.358502 5.942850 -27.960708 34.897439 -34.783023 -26.012982 7.386233 -8.489610 
-0.539183 1.722279 0.860563 -160.000033 -5.347309 100.465760 8.395899 5.750897 21.011752 -9.482780 -7.133418 50.594568 -4.422453 14.502195 -13.308216 0.000000 -0.000000 0.000000 -7.275648 2.867279 -57.381272 8.389577 -15.887510 33.253057 2.055682 -5.131141 -2.597944 0.000000 -0.000000 0.000000 2.530970 -16.223476 22.491999 1.409179 -1.181168 1.017474 -2.512578 -6.418224 1.028011 0.796727 3.736820 -15.741249 0.580221 2.530785 -4.259752 -28.082173 -9.119728 -0.015491 -22.515167 -13.373827 13.883429 165.457450 -88.638655 -139.984578 26.971941 -22.103228 15.954982 28.417720 11.895346 0.990428 40.026133 12.367957 7.979437 -25.726666 37.344028 -31.698679 -26.331335 9.322388 -6.701211 
-0.579362 1.829413 0.842476 -164.013323 -5.222926 99.049603 7.832541 8.319353 17.203777 -4.689256 1.224181 66.851968 -1.930013 18.984505 -14.120742 0.000000 -0.000000 0.000000 -5.648762 2.264614 -57.880869 7.597014 -18.619900 53.271125 -3.636115 -5.101773 -14.264413 0.000000 -0.000000 0.000000 2.381044 -16.057661 24.962681 2.315587 -2.518550 1.721745 -2.300878 -6.702812 -0.120440 -0.045097 7.655722 -17.526053 -2.656039 4.111210 -4.070347 -28.373190 -15.960377 0.615428 -24.847119 -11.949846 11.986601 4.654743 -63.656020 25.297597 17.845008 -19.827720 27.203013 29.449720 17.700220 2.183996 40.719369 17.758766 7.495486 -24.476083 37.973084 -23.406837 -23.403113 9.952713 -7.541264 
-0.611069 1.932630 0.840037 -167.681781 -3.439976 99.145594 8.596649 9.361356 7.198119 -3.313058 5.373882 82.147700 0.772717 18.548454 -14.804178 0.000000 -0.000000 0.000000 -2.891246 4.305308 -52.313823 6.128600 -19.743375 58.654590 -10.712743 -7.498388 -23.546802 0.000000 -0.000000 0.000000 4.104873 -14.750039 26.441623 2.418156 -3.362954 2.182834 -1.730897 -5.879122 -1.222864 -1.680257 7.225390 -19.394456 -2.662086 7.165486 -4.538106 -30.278528 -22.242614 1.853259 -30.140047 -13.092598 6.739351 14.913160 -36.415793 2.334480 20.478741 -11.997714 19.238855 29.324890 22.900662 3.191866 42.530382 21.683003 7.958743 -22.781438 36.912362 -16.889399 -20.228066 11.144459 -3.997235 
